#!OML:ASF I:\Actors\actors\Patient Classification 1\Patient 1\Session 1\Subject1.ASF
:FULLY-SPECIFIED
:DEGREES
1346
root 0.584612 17.6409 8.81856 15.9298 -25.6579 -9.32371
lowerback -0.308856 -4.84539 -0.551923
upperback -9.52273 -6.2886 5.85165
thorax -9.18948 -2.84982 7.03111
lowerneck -8.53098 -7.83419 -4.40908
upperneck 29.2619 -11.9688 3.38966
head 11.3797 -5.72153 0.457971
rclavicle 1.18177e-013 -5.88403e-014
rhumerus 3.21246 32.8581 -41.4723
rradius 127.35
rwrist -9.19102
rhand 37.7566 -61.11
rfingers 7.12502
rthumb 60.5108 -74.3426
lclavicle 1.18177e-013 -5.88403e-014
lhumerus 7.41166 -40.5914 66.3402
lradius 110.894
lwrist 15.6159
lhand 59.3036 4.18988
lfingers 7.12502
lthumb 74.4346 -25.7813
rfemur -15.0857 28.0571 16.091
rtibia 4.82063
rfoot -7.88272 -8.22583
rtoes -12.9768
lfemur 372.318 -50.5982 336.244
ltibia -4.99604
lfoot -89.516 58.4183
ltoes 45.1134
1347
root 0.637423 17.6381 8.8255 15.7774 -25.6563 -9.32181
lowerback -0.325106 -5.03618 -1.12281
upperback -9.62741 -6.57336 5.93672
thorax -9.19268 -2.94202 7.46331
lowerneck -8.50129 -7.89546 -4.52998
upperneck 29.7362 -12.1468 3.52687
head 11.5877 -5.7994 0.492813
rclavicle -1.61016e-014 1.07145e-013
rhumerus 3.02479 32.9166 -41.435
rradius 127.588
rwrist -9.42478
rhand 37.7526 -60.9386
rfingers 7.12502
rthumb 60.5075 -74.1748
lclavicle -1.61016e-014 1.07145e-013
lhumerus 7.54994 -40.8049 66.288
lradius 110.924
lwrist 15.7312
lhand 59.1688 4.06597
lfingers 7.12502
lthumb 74.3991 -25.4388
rfemur -14.9214 28.0956 15.9647
rtibia 4.7684
rfoot -7.89236 -8.3986
rtoes -13.4013
lfemur 372.806 -51.1128 335.586
ltibia -4.9773
lfoot -90.4258 58.445
ltoes 45.3583
1348
root 0.688876 17.6351 8.8315 15.5983 -25.6176 -9.33751
lowerback -0.305026 -5.20881 -1.6901
upperback -9.74965 -6.83274 6.03444
thorax -9.23471 -3.01877 7.91262
lowerneck -8.17343 -7.93167 -4.60636
upperneck 29.8906 -12.2475 3.5809
head 11.5977 -5.85966 0.523051
rclavicle 1.31645e-013 2.78299e-014
rhumerus 2.81259 33.081 -41.4542
rradius 127.849
rwrist -9.63194
rhand 37.6584 -60.6555
rfingers 7.12502
rthumb 60.4273 -73.9792
lclavicle 1.31645e-013 2.78299e-014
lhumerus 7.54 -40.9895 66.3983
lradius 110.965
lwrist 15.6747
lhand 59.0127 4.10432
lfingers 7.12502
lthumb 74.3567 -24.8634
rfemur -14.7285 28.2006 15.8771
rtibia 4.74342
rfoot -7.92848 -8.62346
rtoes -13.4154
lfemur 373.272 -51.5455 334.986
ltibia -4.94971
lfoot -91.0873 58.5857
ltoes 45.5267
1349
root 0.739107 17.6324 8.83705 15.4464 -25.5498 -9.41014
lowerback -0.272184 -5.33658 -2.194
upperback -9.84121 -7.02868 6.13084
thorax -9.26219 -3.06922 8.32111
lowerneck -7.96459 -8.01554 -4.66821
upperneck 30.0637 -12.3954 3.57
head 11.6359 -5.94253 0.51507
rclavicle 5.00937e-014 -5.96354e-014
rhumerus 2.61399 33.2905 -41.4728
rradius 128.177
rwrist -9.64881
rhand 37.7303 -60.4848
rfingers 7.12502
rthumb 60.4885 -73.7418
lclavicle 5.00937e-014 -5.96354e-014
lhumerus 7.51622 -41.1629 66.53
lradius 110.988
lwrist 15.5244
lhand 59.1635 3.82138
lfingers 7.12502
lthumb 74.3976 -25.6652
rfemur -14.5413 28.3786 15.844
rtibia 4.71369
rfoot -7.97862 -8.89207
rtoes -12.9907
lfemur 373.612 -51.7922 334.578
ltibia -4.91798
lfoot -91.3532 58.7439
ltoes 45.6281
1350
root 0.789834 17.6307 8.84326 15.3438 -25.4137 -9.49582
lowerback -0.292925 -5.40395 -2.58195
upperback -9.89901 -7.13891 6.17964
thorax -9.24928 -3.09046 8.59884
lowerneck -7.90081 -8.17138 -4.7333
upperneck 30.2072 -12.6462 3.59535
head 11.7006 -6.06224 0.499794
rclavicle -4.91495e-014 -2.76311e-014
rhumerus 2.4187 33.4171 -41.4845
rradius 128.492
rwrist -9.6627
rhand 38.0198 -60.5822
rfingers 7.12502
rthumb 60.7344 -73.5677
lclavicle -4.91495e-014 -2.76311e-014
lhumerus 7.55784 -41.3878 66.6048
lradius 111.076
lwrist 15.3943
lhand 59.5494 3.22394
lfingers 7.12502
lthumb 74.4965 -27.6029
rfemur -14.3942 28.4942 15.8157
rtibia 4.674
rfoot -8.04125 -9.1954
rtoes -12.4737
lfemur 373.778 -51.9448 334.356
ltibia -4.89756
lfoot -91.33 58.9292
ltoes 45.6658
1351
root 0.840806 17.6293 8.849 15.2682 -25.2375 -9.5599
lowerback -0.350952 -5.34444 -2.834
upperback -9.95156 -7.07782 6.0623
thorax -9.27005 -3.04215 8.60704
lowerneck -7.81882 -8.42088 -4.57792
upperneck 30.2399 -13.0687 3.64245
head 11.712 -6.23388 0.437424
rclavicle -4.81059e-014 1.19271e-015
rhumerus 1.92025 33.3537 -41.7369
rradius 128.77
rwrist -9.76839
rhand 38.1068 -60.6754
rfingers 7.12502
rthumb 60.8081 -73.5784
lclavicle -4.81059e-014 1.19271e-015
lhumerus 7.7387 -41.8938 66.5412
lradius 111.217
lwrist 15.3638
lhand 59.2828 3.38408
lfingers 7.12502
lthumb 74.4291 -26.515
rfemur -14.2958 28.4259 15.7705
rtibia 4.62525
rfoot -8.02699 -9.39419
rtoes -12.386
lfemur 373.808 -51.9954 334.249
ltibia -4.90277
lfoot -91.0331 59.2064
ltoes 45.6009
1352
root 0.890148 17.6285 8.85396 15.2077 -25.0599 -9.64561
lowerback -0.384498 -5.22034 -3.00077
upperback -10.0301 -6.92789 5.88835
thorax -9.36537 -2.95433 8.50893
lowerneck -7.70582 -8.66356 -4.38603
upperneck 30.3302 -13.5078 3.7258
head 11.7409 -6.40507 0.380682
rclavicle 1.9456e-014 3.11098e-014
rhumerus 1.29759 33.2996 -42.1448
rradius 129.074
rwrist -9.77213
rhand 37.8352 -60.6203
rfingers 7.12502
rthumb 60.5777 -73.7795
lclavicle 1.9456e-014 3.11098e-014
lhumerus 7.8393 -42.4708 66.4619
lradius 111.344
lwrist 15.4381
lhand 58.5634 4.2205
lfingers 7.12502
lthumb 74.2268 -23.2177
rfemur -14.2129 28.4129 15.7457
rtibia 4.59154
rfoot -7.98423 -9.63552
rtoes -12.4273
lfemur 373.733 -51.8581 334.288
ltibia -4.93648
lfoot -90.2957 59.5026
ltoes 45.4595
